<svg width="144" height="40" viewBox="0 0 144 40" fill="none" xmlns="http://www.w3.org/2000/svg">
<path d="M96.0763 26.5332C95.9322 26.4495 95.8136 26.328 95.7334 26.1819C95.6532 26.0357 95.6145 25.8705 95.6212 25.7039C95.6197 25.5763 95.6438 25.4496 95.6919 25.3314C95.7401 25.2132 95.8114 25.1058 95.9017 25.0155C95.9919 24.9253 96.0993 24.854 96.2176 24.8058C96.3358 24.7576 96.4624 24.7336 96.5901 24.7351C96.7702 24.7389 96.9466 24.7868 97.1038 24.8747C98.1117 25.5462 99.1602 25.8826 100.108 25.8826C101.136 25.8826 101.729 25.4471 101.729 24.756V24.717C101.729 23.9059 100.622 23.6295 99.3961 23.2539C97.8605 22.8184 96.135 22.186 96.135 20.1897V20.1506C96.135 18.1738 97.7753 16.9677 99.8512 16.9677C100.997 16.9876 102.122 17.279 103.133 17.8178C103.304 17.9007 103.448 18.0298 103.549 18.1904C103.65 18.3511 103.705 18.5368 103.706 18.7266C103.705 18.8552 103.678 18.9823 103.628 19.1006C103.577 19.2189 103.504 19.3262 103.412 19.4162C103.321 19.5062 103.212 19.5772 103.093 19.6251C102.973 19.673 102.846 19.6969 102.717 19.6955C102.551 19.6987 102.387 19.6577 102.243 19.5768C101.392 19.1427 100.523 18.8648 99.7926 18.8648C98.8628 18.8648 98.3295 19.3004 98.3295 19.9133V19.9523C98.3295 20.7034 99.4561 21.0203 100.682 21.4154C102.203 21.89 103.923 22.5824 103.923 24.4601V24.4992C103.923 26.6937 102.223 27.7798 100.049 27.7798C98.6307 27.7693 97.2473 27.3357 96.0763 26.5346" fill="#040B33"/>
<path d="M106.474 24.6946V19.1999H106.079C105.806 19.1999 105.545 19.0916 105.352 18.8989C105.16 18.7062 105.051 18.4449 105.051 18.1724C105.051 17.8999 105.16 17.6386 105.352 17.4459C105.545 17.2532 105.806 17.1449 106.079 17.1449H106.474V15.365C106.485 15.055 106.615 14.7611 106.838 14.5456C107.061 14.33 107.359 14.2095 107.67 14.2095C107.98 14.2095 108.278 14.33 108.501 14.5456C108.724 14.7611 108.855 15.055 108.865 15.365V17.1449H110.75C111.022 17.1449 111.284 17.2532 111.476 17.4459C111.669 17.6386 111.777 17.8999 111.777 18.1724C111.777 18.4449 111.669 18.7062 111.476 18.8989C111.284 19.0916 111.022 19.1999 110.75 19.1999H108.865V24.3135C108.865 25.2432 109.34 25.6188 110.151 25.6188C110.351 25.6133 110.551 25.597 110.75 25.5699C111.014 25.5698 111.268 25.6733 111.456 25.8581C111.645 26.0429 111.754 26.2942 111.759 26.5583C111.755 26.758 111.693 26.9523 111.58 27.1173C111.468 27.2824 111.31 27.4112 111.125 27.488C110.599 27.6765 110.044 27.771 109.485 27.7672C107.726 27.7672 106.481 26.9966 106.481 24.703" fill="#040B33"/>
<path d="M113.017 22.4219V22.3828C113.017 19.3981 115.39 16.9272 118.591 16.9272C121.792 16.9272 124.152 19.3577 124.152 22.3437V22.3828C124.152 25.348 121.778 27.8175 118.558 27.8175C115.375 27.8175 113.023 25.3871 113.023 22.4219M121.759 22.4219V22.3828C121.759 20.5443 120.436 19.0226 118.558 19.0226C116.64 19.0226 115.414 20.5247 115.414 22.3437V22.3828C115.414 24.1977 116.739 25.7431 118.597 25.7431C120.535 25.7431 121.759 24.22 121.759 22.4219Z" fill="#040B33"/>
<path d="M126.385 18.2325C126.384 18.0753 126.413 17.9193 126.472 17.7735C126.531 17.6276 126.618 17.4949 126.728 17.3828C126.838 17.2707 126.97 17.1816 127.114 17.1204C127.259 17.0592 127.415 17.0272 127.572 17.0263C127.891 17.0278 128.197 17.1554 128.423 17.3813C128.648 17.6072 128.776 17.9132 128.777 18.2325V19.299C129.335 17.9952 130.358 17.0068 131.405 17.0068C132.156 17.0068 132.592 17.5205 132.592 18.192C132.602 18.4663 132.511 18.7348 132.336 18.9462C132.161 19.1576 131.914 19.2971 131.643 19.3381C129.944 19.6355 128.777 20.9394 128.777 23.4103V26.4941C128.776 26.6511 128.744 26.8063 128.682 26.9509C128.621 27.0955 128.532 27.2266 128.42 27.3367C128.308 27.4468 128.176 27.5337 128.03 27.5925C127.885 27.6513 127.729 27.6808 127.572 27.6793C127.416 27.6806 127.261 27.6509 127.117 27.5918C126.972 27.5327 126.841 27.4455 126.731 27.3352C126.62 27.2249 126.533 27.0937 126.473 26.9493C126.414 26.8049 126.384 26.6502 126.385 26.4941V18.2325Z" fill="#040B33"/>
<path d="M133.439 22.4024V22.3591C133.439 19.3744 135.553 16.923 138.538 16.923C141.859 16.923 143.499 19.6508 143.499 22.0617C143.503 22.2117 143.477 22.3609 143.422 22.5004C143.367 22.64 143.284 22.767 143.179 22.874C143.074 22.9809 142.948 23.0656 142.81 23.123C142.671 23.1804 142.523 23.2092 142.373 23.2079H135.831C136.088 24.9082 137.292 25.8603 138.835 25.8603C139.743 25.8746 140.624 25.5506 141.306 24.9515C141.479 24.811 141.696 24.7342 141.919 24.7337C142.045 24.7342 142.17 24.7598 142.286 24.809C142.402 24.8581 142.507 24.9298 142.595 25.02C142.684 25.1101 142.753 25.2168 142.8 25.334C142.846 25.4512 142.869 25.5765 142.867 25.7025C142.867 25.8364 142.838 25.9688 142.784 26.0911C142.73 26.2135 142.65 26.3232 142.551 26.4131C141.602 27.2633 140.415 27.8161 138.796 27.8161C135.771 27.8161 133.439 25.623 133.439 22.401M141.168 21.6304C141.009 20.0878 140.1 18.883 138.515 18.883C137.054 18.883 136.025 20.0096 135.808 21.6304H141.168Z" fill="#040B33"/>
<path d="M24.5694 4.54727C24.5694 4.54727 12.6656 -2.04055 2.62538 1.12702C2.62538 1.12702 2.00555 1.10747 1.41503 1.91437C0.824518 2.72127 0.298218 3.27549 0.577422 3.89812C0.856626 4.52074 2.40761 4.83066 3.75756 4.45652C3.75756 4.45652 4.38716 4.06006 3.61796 3.78364C3.23777 3.63363 2.84482 3.51823 2.4439 3.43883C2.4439 3.43883 2.03487 3.32435 2.45367 3.12751C2.87248 2.93068 7.44584 1.624 15.4255 3.91906C23.4051 6.21412 34.0791 13.0211 33.5737 19.7611C33.0684 26.5011 22.5215 26.5011 22.5215 26.5011C20.8126 26.4822 19.1104 26.2843 17.4427 25.9106C17.4427 23.7049 17.4427 19.99 17.546 17.674C20.1063 17.8374 25.421 18.3274 26.1232 19.5936C26.1232 19.5936 26.4471 19.9161 25.3735 20.4982C24.5597 20.9463 23.863 21.125 24.5722 21.5061C24.5722 21.5061 25.6123 22.1553 26.2335 21.9696C26.8547 21.7839 28.5732 21.213 28.7784 19.4135C28.9836 17.614 26.824 15.7964 23.7248 15.1947C21.2902 14.7173 19.9919 14.4646 17.7736 14.4967C17.8197 12.4878 17.6075 9.98756 17.1873 9.37889C16.6428 8.59014 16.0551 7.54033 15.5581 8.65994C15.11 9.66926 14.7121 11.8108 14.5278 14.7131C11.1118 15.1598 7.31322 16.4986 6.1629 17.8723C4.88135 19.4079 6.0945 20.7006 6.18105 20.8388C6.2676 20.977 8.64083 24.6332 13.9541 27.2075C14.0113 28.1735 14.1635 29.2331 14.5292 29.8194C15.318 31.0828 16.8369 30.2466 17.0519 30.047C17.2054 29.9074 17.3394 29.5053 17.4037 28.5435C19.7769 29.2177 24.0836 30.0051 28.7673 28.7403C35.8283 26.8305 36.9396 22.5085 37.216 19.937C37.4924 17.3655 35.7529 10.5711 24.575 4.54029M17.5516 17.5652V17.554C17.9816 17.554 17.8588 17.554 17.5516 17.5652ZM6.86649 20.1255C6.86649 20.1255 6.11822 19.2767 7.26575 18.795C8.31137 18.3567 10.5199 17.7773 14.419 17.6252C14.3799 18.8174 14.2696 21.3302 13.9597 24.8943C11.4831 23.9547 8.90189 22.4708 6.86649 20.1255Z" fill="#040B33"/>
<path d="M42.6967 12.9625C45.5558 12.0914 48.3394 9.41242 48.4302 7.20113C48.5209 4.98983 46.0472 4.94237 46.0472 4.94237H45.9955C45.613 3.54635 43.0164 3.66919 43.0164 3.66919C37.7785 3.95538 35.9456 7.53756 35.6887 8.48407C35.5379 9.00996 35.5357 9.56734 35.6823 10.0944C35.8289 10.6215 36.1187 11.0977 36.5193 11.4702C36.1899 12.2561 36.4132 12.6219 36.49 12.8313C36.5863 13.0937 37.0219 13.9048 37.5384 13.8657C37.9084 13.8392 38.1918 13.6033 38.6427 12.8089C39.6674 13.2794 40.9098 13.5069 42.6911 12.9611M46.3613 8.22301C44.8257 11.1547 41.5478 11.1937 39.7134 10.8154C40.935 9.05364 43.5651 6.91634 45.2151 6.69437C47.1082 6.44029 46.3613 8.22301 46.3613 8.22301ZM37.9684 7.92427C38.7125 6.80745 39.7651 6.33559 41.0564 6.24904C39.3951 7.29606 38.2267 8.72977 37.5859 9.65533C37.3667 9.28399 37.3988 8.77584 37.9684 7.92706" fill="#040B33"/>
<path d="M41.3859 22.5657C41.3859 22.5657 41.33 18.238 41.2784 17.3306C41.2629 16.6976 41.0463 16.0859 40.6599 15.5842C40.3807 15.1905 40.0164 14.6656 39.3589 15.2114C38.7013 15.7573 38.5408 19.3395 38.3816 22.1915C38.2225 25.0436 38.323 26.8584 38.6692 27.3568C39.0154 27.8552 40.3542 28.0995 40.9615 27.6542C41.5688 27.2088 41.3887 22.9761 41.3887 22.9761L41.3859 22.5657Z" fill="#040B33"/>
<path d="M55.7537 16.0239C54.8575 14.9658 49.776 14.9993 49.776 14.9993C47.8927 15.0984 43.5385 15.7713 42.9452 17.6629C42.3519 19.5545 42.8322 20.2092 42.8322 20.2092C43.3473 21.1794 46.9895 21.2325 47.9974 21.3121C49.0054 21.3916 51.6452 21.8091 52.5596 22.3479C53.474 22.8868 52.8304 23.5932 52.8304 23.5932C51.9426 24.8859 47.0412 24.9724 47.0412 24.9724C47.0412 24.9724 45.2905 24.9473 44.8354 24.5704C44.3803 24.1935 44.2393 23.8863 44.7475 23.314C45.2556 22.7416 46.5707 23.4131 46.5707 23.4131C47.3135 23.9127 48.1761 24.2052 49.0696 24.2605C50.5158 24.3261 51.5629 23.8179 51.6257 23.3307C51.6885 22.8435 50.3916 22.313 50.3916 22.313C46.103 20.9784 44.3468 21.9822 44.3468 21.9822C41.961 23.4089 43.6488 25.4192 43.6488 25.4192C47.3692 29.6072 53.3707 27.1167 54.0576 26.5499C54.7444 25.9831 55.0459 25.3633 55.1185 23.6923C55.1911 22.0212 54.4903 21.2423 54.4903 21.2423C53.3009 19.6857 49.822 19.5852 48.8699 19.507C47.9179 19.4288 45.9383 19.1371 45.4567 19.0212C44.975 18.9053 45.3171 18.5507 45.3171 18.5507C45.9453 18.0803 50.6219 17.8276 53.0985 17.7494L54.4945 17.6098C55.388 17.4912 55.5457 16.9691 55.7104 16.5851C55.8752 16.2012 55.7537 16.0267 55.7537 16.0267" fill="#040B33"/>
<path d="M63.2978 13.5893C63.2978 13.5893 62.7673 13.3101 62.5998 13.8685C62.5022 14.2424 62.509 14.6359 62.6193 15.0062C63.8967 19.8141 64.1242 22.6006 64.1242 22.6006C64.1242 22.6006 64.1801 23.4159 64.0363 23.4871C63.9919 23.5067 63.9428 23.513 63.8949 23.5051C63.847 23.4971 63.8025 23.4753 63.7669 23.4424C63.6384 23.4131 62.1656 20.8067 62.1656 20.8067L61.8892 20.3251C60.2447 17.5442 59.2884 16.5907 59.2884 16.5907C59.0399 16.3646 58.4368 15.7391 57.6383 16.5684C56.8398 17.3976 56.2018 20.1087 55.8863 22.676C55.5708 25.2432 55.7188 26.7244 56.0887 27.3471C56.4587 27.9697 57.2474 28.2098 57.9357 27.6891C58.6239 27.1684 58.6141 23.7802 58.7733 22.0519C58.9324 20.3237 59.0734 20.6294 59.0734 20.6294C59.2298 20.6113 59.9795 22.2292 59.9795 22.2292C59.9795 22.2292 61.9702 26.5401 63.2643 27.2256C64.5584 27.911 65.671 26.9073 66.108 25.9692C66.5449 25.0311 67.3379 21.8551 66.3872 18.2911C65.4365 14.727 63.2992 13.5893 63.2992 13.5893" fill="#040B33"/>
<path d="M76.6465 26.2219C76.8169 25.6188 76.2277 24.8258 75.6889 24.6723C75.2114 24.5327 71.1979 25.1734 70.7065 25.2865C70.2151 25.3996 70.444 24.9305 70.444 24.9305L71.1267 22.8882C71.1267 22.8882 74.9127 22.8574 75.4446 22.7709C75.9765 22.6843 76.0128 22.3339 76.0128 22.3339C76.0545 21.9492 76.0736 21.5623 76.07 21.1752C76.07 20.6168 75.573 20.6168 75.573 20.6168C74.1086 20.4451 72.1207 20.5694 72.1207 20.5694L72.6442 18.9612L72.8899 18.9514C74.7703 19.0254 77.4562 18.7518 78.2213 18.5647C78.9863 18.3776 78.5856 17.6126 78.5856 17.6126C77.674 15.6777 76.5767 15.7754 76.5767 15.7754C73.3464 15.5646 68.787 16.3185 68.276 16.5125C67.7651 16.7066 67.8125 17.0947 68.4156 17.8583C69.0187 18.6219 70.1564 18.6568 70.1564 18.6568L69.1485 20.628C68.3612 20.6685 68.0862 20.9072 68.0862 20.9072C67.6045 21.3721 68.1811 22.8407 68.1811 22.8407C68.0091 23.1969 67.8603 23.5639 67.7358 23.9394C67.511 24.5997 66.7948 25.7807 67.6953 27.5578C68.5957 29.335 69.9805 29.2331 69.9805 29.2331C72.4529 29.3294 76.4023 27.0776 76.6424 26.2177" fill="#040B33"/>
<path d="M89.2275 17.3334C88.8931 17.0657 88.4807 16.9141 88.0526 16.9015C87.6244 16.8889 87.2038 17.016 86.8543 17.2636C84.6388 18.407 81.8523 21.8244 80.3335 23.8389C80.1143 22.387 81.1418 20.5792 81.1418 20.5792L81.3847 20.1604C82.6062 18.1082 82.7919 17.8918 83.0403 17.3586C83.2888 16.8253 83.4242 15.6456 83.1702 15.5326C82.9161 15.4195 82.4917 15.8006 82.4917 15.8006C78.8439 18.8635 78.252 22.38 78.252 22.38C77.8751 24.1949 78.178 25.5113 78.6848 26.4285C76.6103 30.738 75.8299 34.887 75.8299 36.4966C75.8299 38.2318 77.1659 39.3682 77.8807 39.6711C78.5954 39.9741 78.7183 39.0904 78.7183 39.0904C79.4428 34.679 80.5331 31.732 81.823 28.7878C85.4527 29.7789 88.482 25.9497 89.4257 24.502C90.4923 22.8659 90.4923 20.642 90.4923 20.642C90.5007 20.4326 90.4839 18.2688 89.2233 17.3292M86.6211 24.3931C86.1828 24.777 84.7784 25.5323 83.3209 25.6411C84.4778 23.6047 85.8883 21.7232 87.5188 20.0417C88.6928 18.809 88.8115 19.9747 88.8115 19.9747C89.0083 22.1678 87.3331 23.7705 86.6211 24.3931Z" fill="#040B33"/>
</svg>
